<svg id="레이어_1" data-name="레이어 1" xmlns="http://www.w3.org/2000/svg" viewBox="0 0 350 350"><defs><style>.cls-1{fill:none;stroke:#1636f2;stroke-miterlimit:10;stroke-width:4px;}</style></defs><path class="cls-1" d="M167.07,65.44,75.24,155.82Z"/><line class="cls-1" x1="181.33" y1="65.43" x2="272.34" y2="155.82"/><path class="cls-1" d="M166,66.54a12.71,12.71,0,0,1,1.38-1.38,11.78,11.78,0,0,1,2.39-1.61,9.61,9.61,0,0,1,4.47-1,10.26,10.26,0,0,1,4.59,1.24,12.16,12.16,0,0,1,2.54,1.68,10.66,10.66,0,0,1,1.17,1.17"/><path class="cls-1" d="M272,155.58a14.36,14.36,0,0,1,3.6,8.25,14.73,14.73,0,0,1-3.6,10.71,12.92,12.92,0,0,1-6.52,4.31c-1,.26-1.85.35-5.29.4-3,0-5.5,0-7.32,0v71.33s-2.87,17.77-18.29,17.77c-17.39,0-30.6,1-32.92,0l-1.83-1.83V212.19s-1.4-12.39-11.32-12.39H174.23"/><path class="cls-1" d="M175.63,199.8H158.74c-9.93,0-11.33,12.39-11.33,12.39v54.33l-1.83,1.83c-2.32,1-15.53,0-32.92,0-15.41,0-18.29-17.77-18.29-17.77V179.25c-1.82,0-4.32,0-7.32,0-3.44-.05-4.31-.14-5.29-.4a12.92,12.92,0,0,1-6.52-4.31,14.71,14.71,0,0,1-3.6-10.71,14.44,14.44,0,0,1,3.6-8.25"/></svg>