<svg id="레이어_1" data-name="레이어 1" xmlns="http://www.w3.org/2000/svg" viewBox="0 0 350 350"><defs><style>.cls-1{fill:none;stroke:#1636f2;stroke-miterlimit:10;stroke-width:4px;}</style></defs><path class="cls-1" d="M110.81,209.29a1.33,1.33,0,0,0-.37-1.27c-4.37-4.22-29-29.82-22.33-62.26,5.73-27.73,30.28-40.7,41.53-46.64,35.73-18.87,78.49-11.67,104.51,6.81,6.12,4.34,21.23,15.08,28.46,34.67a53,53,0,0,1,3.71,17.65c.69,25.36-18.41,42.66-22.06,46a73,73,0,0,1-21.68,13.38c-32.53,13.51-67.13,7.31-84,3.07a1.37,1.37,0,0,0-1,.15l-31.15,18.4a1.35,1.35,0,0,1-2-1.47Z"/><circle class="cls-1" cx="132.56" cy="157.7" r="11.35"/><circle class="cls-1" cx="176.57" cy="157.7" r="11.35"/><circle class="cls-1" cx="220.74" cy="157.7" r="11.35"/></svg>