<svg xmlns="http://www.w3.org/2000/svg" width="113" height="138.93" viewBox="0 0 113 138.93">
  <g id="picLogo" transform="translate(-200.79 -29.88)">
    <path id="패스_1" data-name="패스 1" d="M280.65,61.31Q263.88,84.71,247,109.65q-15.09,22.29-29.06,44.06a14.36,14.36,0,0,0-7.33-1.77,13.53,13.53,0,0,0-4.22.83,10.06,10.06,0,0,0-3.33,1.87,9.44,9.44,0,0,0-2.27,3l24.53,11.17L280.65,87q11.36,16.5,22.86,33.07c3.438,4.946,6.686,9.881,10.28,15.03V108.819Z" fill="#1636f2" opacity="0.7"/>
    <circle id="타원_1" data-name="타원 1" cx="9.83" cy="9.83" r="9.83" transform="translate(270.4 29.88)" fill="#1636f2" opacity="0.7"/>
  </g>
</svg>
