<svg id="레이어_1" data-name="레이어 1" xmlns="http://www.w3.org/2000/svg" viewBox="0 0 528.74 201.3"><defs><style>.cls-1{fill:#1636f2;}</style></defs><path class="cls-1" d="M280.65,61.31Q263.88,84.71,247,109.65q-15.09,22.29-29.06,44.06a14.36,14.36,0,0,0-7.33-1.77,13.53,13.53,0,0,0-4.22.83,10.06,10.06,0,0,0-3.33,1.87,9.44,9.44,0,0,0-2.27,3l24.53,11.17L280.65,87q11.36,16.5,22.86,33.07,13.5,19.42,27,38.63a12.78,12.78,0,0,0-2.91,2.25,9.56,9.56,0,0,0-2.15,3.08,9.17,9.17,0,0,0-.65,4.29,10.3,10.3,0,0,0,.67,3.07l24-11.65Z"/><circle class="cls-1" cx="280.23" cy="39.71" r="9.83"/></svg>