<svg id="레이어_1" data-name="레이어 1" xmlns="http://www.w3.org/2000/svg" viewBox="0 0 528.74 201.3"><defs><style>.cls-1{fill:#1636f2;}</style></defs><path class="cls-1" d="M182.37,57.57q-6.6,9.21-13.24,19-5.94,8.78-11.43,17.33a5.67,5.67,0,0,0-2.88-.7,5.25,5.25,0,0,0-1.66.33,4.06,4.06,0,0,0-1.31.74,3.85,3.85,0,0,0-.9,1.18l9.65,4.39,21.77-32.17q4.45,6.5,9,13,5.31,7.64,10.61,15.19a5,5,0,0,0-1.15.89A3.72,3.72,0,0,0,200,98a3.6,3.6,0,0,0-.26,1.68,3.82,3.82,0,0,0,.27,1.21l9.45-4.58Z"/><circle class="cls-1" cx="182.2" cy="49.08" r="3.87"/><path d="M218.16,106.63v5.94H185.85v16.29h-7.38V112.57H144.9v-5.94ZM161.64,138.4h48.51v6H154.26V121.21h7.38Z"/><path d="M301.05,119.32H267.93v27h-7.38v-27H227.79v-5.94h73.26Zm-9.27-15.66H237.06V68.74h7.29V79.81h40V68.74h7.38ZM284.4,85.75h-40V97.63h40Z"/><path d="M383.85,107.17v5.94H310.68v-5.94ZM367.2,73.24H319.86V67.57h54.63v19H327.33v7.92H376.2v5.76H320V81.07H367.2Zm-46.71,47.34h54.09v24.57H320.49Zm7.2,18.63h39.6V126.43h-39.6Z"/></svg>