<svg width="13" height="14" xmlns="http://www.w3.org/2000/svg" xmlns:xlink="http://www.w3.org/1999/xlink" overflow="hidden"><defs><clipPath id="clip0"><rect x="633" y="353" width="13" height="14"/></clipPath></defs><g clip-path="url(#clip0)" transform="translate(-633 -353)"><path d="M644.07 359.187 643.447 359.187 643.447 357.357C643.422 355.201 641.656 353.473 639.5 353.494 637.346 353.475 635.582 355.202 635.557 357.357L635.557 359.187 634.934 359.187C634.254 359.18 633.696 359.726 633.689 360.407L633.689 365.286C633.696 365.966 634.254 366.512 634.934 366.506L644.07 366.506C644.75 366.512 645.308 365.966 645.315 365.286L645.315 360.407C645.308 359.726 644.75 359.18 644.07 359.187ZM641.372 359.187 637.632 359.187 637.632 357.357C637.666 356.326 638.529 355.517 639.56 355.55 640.545 355.582 641.335 356.373 641.367 357.357Z" stroke="#9B9B9B" stroke-width="0.988631" fill="none"/></g></svg>